<?xml version="1.0" standalone="no"?>
<!DOCTYPE svg PUBLIC "-//W3C//DTD SVG 20010904//EN"
 "http://www.w3.org/TR/2001/REC-SVG-20010904/DTD/svg10.dtd">
<svg version="1.0" xmlns="http://www.w3.org/2000/svg"
 width="500.000000pt" height="500.000000pt" viewBox="0 0 500.000000 500.000000"
 preserveAspectRatio="xMidYMid meet">
<metadata>
Created by potrace 1.10, written by Peter Selinger 2001-2011
</metadata>
<g transform="translate(0.000000,500.000000) scale(0.100000,-0.100000)"
fill="#000000" stroke="none">
<path d="M1830 3645 l-415 -415 -47 0 -48 0 0 -47 0 -47 -192 -193 -192 -193
62 -63 62 -63 0 -59 c0 -85 17 -134 59 -176 43 -43 99 -61 178 -58 l54 3 450
-450 449 -449 489 489 c494 494 501 500 501 435 0 -17 8 -19 90 -19 l90 0 0
132 0 133 72 72 72 73 -72 73 -72 72 0 168 0 167 -85 0 -85 0 0 -82 0 -83 -32
33 c-22 21 -36 48 -43 80 -10 46 -11 47 -51 50 -38 3 -57 20 -454 417 -228
228 -417 415 -420 415 -3 0 -192 -187 -420 -415z m834 -4 l410 -410 -45 -3
-44 -3 -3 -222 c-2 -218 -2 -223 18 -223 25 0 26 -17 1 -25 -11 -3 -25 -13
-33 -23 -12 -15 -10 -15 14 1 l28 17 16 -38 c18 -46 48 -65 95 -60 32 3 34 5
40 48 5 36 6 39 7 13 3 -46 18 -49 68 -14 25 17 49 31 55 31 24 0 -1 -27 -52
-58 l-56 -33 21 -105 20 -104 -32 -33 -32 -32 0 133 0 134 -29 -7 c-32 -7 -88
13 -110 39 -10 12 -17 14 -27 5 -11 -9 -14 -48 -14 -170 l0 -158 75 -3 75 -3
-442 -443 -443 -442 -437 437 c-241 241 -438 444 -438 450 0 7 4 13 9 13 5 0
24 12 42 27 49 42 70 100 77 216 l5 100 -29 -6 c-16 -3 -49 -1 -72 5 -42 10
-45 10 -68 -18 -19 -24 -23 -41 -24 -96 0 -57 -3 -69 -20 -78 -11 -6 -29 -29
-40 -50 -29 -57 -70 -52 -70 9 0 21 65 159 88 186 17 20 17 20 -4 3 -24 -21
-45 -23 -62 -6 -17 17 -15 38 7 81 l19 38 -81 -3 -82 -3 -5 -58 -5 -58 -55 56
-55 55 180 180 c99 99 183 180 188 180 4 0 6 -85 4 -190 -2 -104 0 -195 4
-201 4 -8 12 -7 27 2 16 10 26 10 47 1 36 -16 81 -15 99 3 8 8 20 15 26 15 7
0 23 9 37 20 26 20 63 27 63 12 0 -5 -16 -16 -35 -25 -40 -19 -76 -80 -58 -98
11 -11 11 -12 60 70 l20 33 24 -43 c13 -24 31 -45 39 -47 13 -2 15 35 12 283
l-3 285 -84 0 -85 0 -2 -242 -2 -243 -6 240 c-3 132 -7 241 -8 243 -1 1 -17 2
-34 2 -31 0 -8 25 377 410 225 226 412 410 415 410 3 0 189 -184 414 -409z
m568 -572 c16 -21 18 -41 16 -134 l-3 -110 -23 115 c-13 63 -26 126 -29 139
-7 30 13 25 39 -10z m256 -252 l62 -63 -65 -64 -65 -64 0 127 c0 70 1 127 3
127 1 0 31 -28 65 -63z"/>
<path d="M1770 2945 c0 -157 3 -285 8 -285 4 0 30 15 58 34 46 31 50 37 46 66
-5 35 21 72 44 63 12 -4 14 28 14 201 l0 206 -85 0 -85 0 0 -285z"/>
<path d="M1966 3214 c-3 -9 -6 -117 -6 -240 l0 -224 25 6 c30 7 42 -14 26 -44
-19 -36 -4 -52 51 -52 89 0 83 -19 80 294 l-3 276 -83 0 c-67 0 -85 -3 -90
-16z"/>
<path d="M2327 3224 c-4 -4 -7 -103 -7 -221 l0 -213 33 0 c18 0 38 -5 45 -12
15 -15 16 -48 2 -48 -5 0 -10 6 -10 14 0 20 -38 30 -55 16 -21 -18 -20 -106 1
-114 24 -9 70 -7 120 5 l44 11 -2 282 -3 281 -80 3 c-45 1 -84 0 -88 -4z"/>
<path d="M2585 3218 c-2 -7 -13 -119 -25 -248 -11 -129 -23 -247 -26 -262 -8
-39 13 -36 70 7 26 19 48 35 51 35 3 0 2 -18 -1 -39 -5 -34 -3 -41 16 -51 12
-6 23 -10 25 -8 2 2 11 95 19 207 9 113 18 206 20 208 4 4 11 -63 27 -269 7
-82 15 -148 19 -148 3 0 26 14 50 30 25 17 60 40 78 51 21 14 31 27 28 38 -3
9 -15 111 -26 226 -11 116 -23 216 -25 223 -3 9 -43 12 -150 12 -108 0 -147
-3 -150 -12z m85 -407 c0 -13 -29 -35 -37 -28 -7 8 15 37 28 37 5 0 9 -4 9 -9z"/>
<path d="M1927 2766 c-6 -16 2 -28 14 -20 12 7 11 34 0 34 -5 0 -11 -6 -14
-14z"/>
<path d="M1265 2739 c-4 -6 -5 -12 -2 -15 2 -3 7 2 10 11 7 17 1 20 -8 4z"/>
<path d="M1968 2724 c-5 -4 -8 -92 -8 -196 l0 -188 354 0 354 0 6 31 c3 17 6
49 6 70 l0 39 54 0 53 0 7 -37 c3 -21 6 -53 6 -70 l0 -33 86 0 87 0 -6 53 c-4
28 -10 91 -13 140 -6 71 -10 87 -23 87 -22 0 -41 20 -41 42 0 23 3 23 -61 -12
-67 -37 -133 -40 -173 -9 -14 11 -26 27 -26 35 0 8 -2 14 -5 14 -6 0 -87 -40
-93 -45 -2 -2 -10 -59 -17 -127 l-12 -123 -2 119 -1 119 -31 -7 c-17 -3 -58
-6 -90 -6 l-59 0 0 -65 0 -65 -91 0 -91 0 4 76 3 75 -55 -6 c-74 -8 -103 8
-110 59 -3 21 -8 34 -12 30z"/>
<path d="M1226 2704 c-9 -22 -7 -44 2 -44 12 0 32 46 25 54 -11 10 -21 7 -27
-10z"/>
<path d="M1889 2704 c-7 -9 -37 -30 -66 -46 -51 -29 -53 -32 -53 -71 0 -60 -9
-85 -32 -93 -31 -10 -51 19 -56 80 -2 31 -8 56 -12 56 -4 0 -20 12 -35 26
l-28 26 -28 -31 c-15 -17 -37 -31 -48 -31 -19 0 -21 -6 -21 -52 0 -151 77
-237 210 -238 81 0 123 15 163 60 44 48 55 87 59 220 3 100 2 105 -18 108 -11
2 -27 -5 -35 -14z"/>
<path d="M2933 2699 c-7 -7 -13 -24 -13 -38 0 -23 1 -24 16 -9 9 8 14 25 12
37 -2 18 -5 20 -15 10z"/>
<path d="M1226 2512 c-9 -18 -15 -43 -13 -55 3 -19 6 -16 21 16 23 52 17 84
-8 39z"/>
</g>
</svg>
