<?xml version="1.0" standalone="no"?>
<svg xmlns="http://www.w3.org/2000/svg" viewBox="0 0 66.9 28.396" width="66.9" height="28.396"><path fill="#000000" fill-rule="nonzero" d="M4.70 17.21L4.70 17.21Q3.36 17.21 2.29 16.57Q1.22 15.94 0.61 14.82Q0 13.70 0 12.31L0 12.31L0 11.21Q0 11.11 0.10 11.11L0.10 11.11L2.81 11.11Q2.90 11.11 2.90 11.23L2.90 11.23L2.90 12.31Q2.90 13.20 3.41 13.75Q3.91 14.30 4.70 14.30L4.70 14.30Q5.42 14.30 5.95 13.70Q6.48 13.10 6.48 12.31L6.48 12.31L6.48 0.38Q6.48 0.29 6.58 0.29L6.58 0.29L9.26 0.29Q9.36 0.29 9.36 0.41L9.36 0.41L9.38 12.31Q9.38 13.63 8.75 14.75Q8.11 15.86 7.06 16.54Q6 17.21 4.70 17.21ZM15.12 17.21L15.12 17.21Q13.82 17.21 12.77 16.56Q11.71 15.91 11.08 14.82Q10.44 13.73 10.44 12.38L10.44 12.38L10.44 4.78Q10.44 3.48 11.08 2.39Q11.71 1.30 12.78 0.65Q13.85 0 15.12 0L15.12 0Q16.44 0 17.51 0.64Q18.58 1.27 19.20 2.35Q19.82 3.43 19.82 4.78L19.82 4.78L19.82 5.88Q19.82 5.98 19.70 5.98L19.70 5.98L17.02 5.98Q16.92 5.98 16.92 5.88L16.92 5.88L16.92 4.97Q16.92 4.06 16.40 3.46Q15.89 2.86 15.12 2.86L15.12 2.86Q14.42 2.86 13.88 3.43Q13.34 4.01 13.34 4.78L13.34 4.78L13.34 12.38Q13.34 13.18 13.87 13.74Q14.40 14.30 15.12 14.30L15.12 14.30Q15.89 14.30 16.40 13.75Q16.92 13.20 16.92 12.38L16.92 12.38L16.92 11.21L15.24 11.21Q15.12 11.21 15.12 11.09L15.12 11.09L15.12 8.40Q15.12 8.28 15.24 8.28L15.24 8.28L19.73 8.28Q19.82 8.28 19.82 8.40L19.82 8.40L19.82 12.38Q19.82 13.73 19.19 14.82Q18.55 15.91 17.50 16.56Q16.44 17.21 15.12 17.21Z" transform="translate(0, 5.594)"></path><line x1="28.823999999999998" y1="2%" x2="28.823999999999998" y2="98%" stroke="#000000" stroke-linecap="round"></line><g fill="#000000" color="#000000" transform="translate(37.824 0) scale(0.6041667)"><svg width="48.0" height="47.0" x="0.0" y="0.0" viewBox="0 0 48 47"><path fill="currentColor" fill-rule="evenodd" d="M32.083 0l-.46.265-2.644 1.527-13.062 7.542L3.854 30.228.267 36.442l-.267.46 2.117 1.222 13.925 8.042.123.07H48V27.57l-.071-.124L34.953 4.97 32.083 0zM25.04 5.292l6.654-3.841 6.547 11.34-13.2-7.5zm-7.67 4.43l6.604-3.814 15.317 8.703 6.725 11.65-28.647-16.54zm-.531.92l29.566 17.07-29.566 17.07v-34.14zM9.171 40.97l-.123-17.615 6.728-11.65v33.078L9.17 40.97zm-7.72-4.457l6.547-11.338.107 15.18-6.654-3.842zm45.487-7.88v7.627l-15.194 8.912H18.29l28.648-16.54zm0 8.858v7.681H33.842l13.096-7.681zM23.567 22.294l9.384 5.42-9.384 5.417V22.294zm1.06 1.84v7.156l6.198-3.577-6.198-3.578z"></path></svg></g></svg>